<svg xmlns="http://www.w3.org/2000/svg" viewBox="0 0 140 20" class="simple-svg" style="width: 140px; height: 20px;">
  <title>Wolox</title>
  <g id="Symbols" stroke="none" stroke-width="1" fill="#0A0A0A" fill-rule="evenodd">
    <path d="M12.9569833,0 L17.8054051,12.8883462 L22.9516079,0.872676706 L26,0.872676706 L17.6835537,19.9894858 L12.8976378,7.25342559 L7.90910442,20 L0,0.872676706 L3.0508502,0.872676706 L7.89611161,12.8883462 L12.9569833,0 Z M45.5483574,0 C48.1380505,0 50.3594043,0.933077385 52.2100181,2.800615 C54.0702347,4.6702269 55,6.91147947 55,9.53059553 C55,12.1645772 54.067491,14.3985698 52.1980144,16.2325734 C50.3230505,18.0786768 48.0598556,19 45.4063718,19 C43.0594946,19 40.9520036,18.1827362 39.0873285,16.543023 C37.0302527,14.7325279 36,12.3585218 36,9.42273331 C36,6.84406558 36.9369675,4.62908714 38.8146751,2.77779799 C40.6814079,0.926508852 42.926769,0 45.5483574,0 Z M102.548357,0 C105.138051,0 107.358032,0.933077385 109.212076,2.800615 C111.070235,4.6702269 112,6.91147947 112,9.53059553 C112,12.1645772 111.066119,14.3985698 109.198014,16.2325734 C107.323051,18.0786768 105.05917,19 102.405686,19 C100.058123,19 97.9513177,18.1827362 96.083213,16.543023 C94.0261372,14.7325279 93,12.3585218 93,9.42273331 C93,6.84406558 93.9362816,4.62908714 95.8119314,2.77779799 C97.680722,0.926508852 99.9253971,0 102.548357,0 Z M128.731415,0 L132.121938,6.09610595 L135.67973,0 L138.745418,0 L133.636383,8.590446 L139,18 L136.00055,18 L132.0741,11.1105954 L128.032904,18 L125,18 L130.571364,8.590446 L125.689813,0 L128.731415,0 Z M72.713486,0 L72.713486,15.4475889 L78,15.4475889 L78,18 L70,18 L70,0 L72.713486,0 Z M45.5116606,2.59595335 C43.6205776,2.59595335 42.0251264,3.26144944 40.7194765,4.59209593 C39.4179422,5.90372823 38.7670036,7.52581015 38.7670036,9.45315599 C38.7670036,11.4738441 39.4409206,13.1401772 40.7918412,14.4462781 C42.1341877,15.7489219 43.6836823,16.4002438 45.4406679,16.4002438 C47.3502708,16.4002438 48.9594404,15.734402 50.267491,14.4096326 C51.579657,13.0661948 52.2343682,11.429593 52.2343682,9.49879001 C52.2343682,7.54655288 51.5878881,5.91098819 50.29287,4.59209593 C49.006769,3.26144944 47.4113177,2.59595335 45.5116606,2.59595335 Z M102.513032,2.59595335 C100.620578,2.59595335 99.0230686,3.26144944 97.7201625,4.59209593 C96.4179422,5.90372823 95.7670036,7.52581015 95.7670036,9.45315599 C95.7670036,11.4738441 96.4409206,13.1401772 97.7904693,14.4462781 C99.131787,15.7489219 100.683682,16.4002438 102.441354,16.4002438 C104.346498,16.4002438 105.957383,15.734402 107.268177,14.4096326 C108.579657,13.0661948 109.235054,11.429593 109.235054,9.49879001 C109.235054,7.54655288 108.587202,5.91098819 107.291841,4.59209593 C106.002996,3.26144944 104.411318,2.59595335 102.513032,2.59595335 Z" id="Shape"></path>
  </g>
</svg>